<svg width="20" height="20" viewBox="0 0 20 20" fill="none" xmlns="http://www.w3.org/2000/svg">
<path d="M17.8571 0H2.14286C0.959821 0 0 0.959821 0 2.14286V17.8571C0 19.0402 0.959821 20 2.14286 20H17.8571C19.0402 20 20 19.0402 20 17.8571V2.14286C20 0.959821 19.0402 0 17.8571 0ZM12.3795 17.1295C12.0045 17.1964 11.8661 16.9643 11.8661 16.7723C11.8661 16.5312 11.875 15.2991 11.875 14.3036C11.875 13.6071 11.6429 13.1652 11.3705 12.933C13.0223 12.75 14.7634 12.5223 14.7634 9.66964C14.7634 8.85714 14.4732 8.45089 14 7.92857C14.0759 7.73661 14.3304 6.94643 13.9241 5.91964C13.3036 5.72768 11.8839 6.71875 11.8839 6.71875C11.2946 6.55357 10.6563 6.46875 10.0268 6.46875C9.39732 6.46875 8.75893 6.55357 8.16964 6.71875C8.16964 6.71875 6.75 5.72768 6.12946 5.91964C5.72321 6.94196 5.97321 7.73214 6.05357 7.92857C5.58036 8.45089 5.35714 8.85714 5.35714 9.66964C5.35714 12.5089 7.02232 12.75 8.67411 12.933C8.45982 13.125 8.26786 13.4554 8.20089 13.9286C7.77679 14.1205 6.69196 14.4509 6.04464 13.308C5.63839 12.6027 4.90625 12.5446 4.90625 12.5446C4.18304 12.5357 4.85714 13 4.85714 13C5.33929 13.2232 5.67857 14.0804 5.67857 14.0804C6.11161 15.4062 8.18304 14.9598 8.18304 14.9598C8.18304 15.5804 8.19196 16.5893 8.19196 16.7723C8.19196 16.9643 8.05804 17.1964 7.67857 17.1295C4.73214 16.1429 2.66964 13.3393 2.66964 10.0625C2.66964 5.96429 5.80357 2.85268 9.90179 2.85268C14 2.85268 17.3214 5.96429 17.3214 10.0625C17.3259 13.3393 15.3259 16.1473 12.3795 17.1295ZM8 14.4018C7.91518 14.4196 7.83482 14.3839 7.82589 14.3259C7.81696 14.2589 7.875 14.2009 7.95982 14.183C8.04464 14.1741 8.125 14.2098 8.13393 14.2679C8.14732 14.3259 8.08929 14.3839 8 14.4018ZM7.57589 14.3616C7.57589 14.4196 7.50893 14.4688 7.41964 14.4688C7.32143 14.4777 7.25446 14.4286 7.25446 14.3616C7.25446 14.3036 7.32143 14.2545 7.41071 14.2545C7.49554 14.2455 7.57589 14.2946 7.57589 14.3616ZM6.96429 14.3125C6.94643 14.3705 6.85714 14.3973 6.78125 14.3705C6.69643 14.3527 6.63839 14.2857 6.65625 14.2277C6.67411 14.1696 6.76339 14.1429 6.83929 14.1607C6.92857 14.1875 6.98661 14.2545 6.96429 14.3125ZM6.41518 14.0714C6.375 14.1205 6.29018 14.1116 6.22321 14.0446C6.15625 13.9866 6.13839 13.9018 6.18304 13.8616C6.22321 13.8125 6.30804 13.8214 6.375 13.8884C6.43304 13.9464 6.45536 14.0357 6.41518 14.0714ZM6.00893 13.6652C5.96875 13.692 5.89286 13.6652 5.84375 13.5982C5.79464 13.5313 5.79464 13.4554 5.84375 13.4241C5.89286 13.3839 5.96875 13.4152 6.00893 13.4821C6.05804 13.5491 6.05804 13.6295 6.00893 13.6652ZM5.71875 13.2321C5.67857 13.2723 5.61161 13.25 5.5625 13.2054C5.51339 13.1473 5.50446 13.0804 5.54464 13.0491C5.58482 13.0089 5.65179 13.0312 5.70089 13.0759C5.75 13.1339 5.75893 13.2009 5.71875 13.2321ZM5.41964 12.9018C5.40179 12.942 5.34375 12.9509 5.29464 12.9196C5.23661 12.8929 5.20982 12.8438 5.22768 12.8036C5.24554 12.7768 5.29464 12.7634 5.35268 12.7857C5.41071 12.817 5.4375 12.8661 5.41964 12.9018Z" fill="black"/>
</svg>
