<svg width="21" height="16" viewBox="0 0 21 16" fill="none" xmlns="http://www.w3.org/2000/svg">
<path d="M2.1106 15.64C1.55816 15.64 1.08541 15.4567 0.692347 15.0901C0.298613 14.7229 0.101746 14.2817 0.101746 13.7664V2.52495C0.101746 2.00971 0.298613 1.5688 0.692347 1.2022C1.08541 0.834978 1.55816 0.651367 2.1106 0.651367H18.1814C18.7338 0.651367 19.2069 0.834978 19.6006 1.2022C19.9937 1.5688 20.1902 2.00971 20.1902 2.52495V13.7664C20.1902 14.2817 19.9937 14.7229 19.6006 15.0901C19.2069 15.4567 18.7338 15.64 18.1814 15.64H2.1106ZM10.146 9.08249L18.1814 4.39853V2.52495L10.146 7.2089L2.1106 2.52495V4.39853L10.146 9.08249Z" fill="black"/>
</svg>
