<svg width="20" height="20" viewBox="0 0 16 16" fill="none" xmlns="http://www.w3.org/2000/svg">
<path d="M14.2222 14.2222H1.77778V1.77778H14.2222M14.2222 0H1.77778C1.30628 0 0.854097 0.187301 0.520699 0.520699C0.187301 0.854097 0 1.30628 0 1.77778V14.2222C0 14.6937 0.187301 15.1459 0.520699 15.4793C0.854097 15.8127 1.30628 16 1.77778 16H14.2222C14.6937 16 15.1459 15.8127 15.4793 15.4793C15.8127 15.1459 16 14.6937 16 14.2222V1.77778C16 1.30628 15.8127 0.854097 15.4793 0.520699C15.1459 0.187301 14.6937 0 14.2222 0ZM12 11.7778C12 10.4444 9.33333 9.77778 8 9.77778C6.66667 9.77778 4 10.4444 4 11.7778V12.4444H12M8 8.22222C8.53043 8.22222 9.03914 8.01151 9.41421 7.63644C9.78929 7.26136 10 6.75266 10 6.22222C10 5.69179 9.78929 5.18308 9.41421 4.80801C9.03914 4.43294 8.53043 4.22222 8 4.22222C7.46957 4.22222 6.96086 4.43294 6.58579 4.80801C6.21071 5.18308 6 5.69179 6 6.22222C6 6.75266 6.21071 7.26136 6.58579 7.63644C6.96086 8.01151 7.46957 8.22222 8 8.22222Z" fill="white"/>
</svg>
