<svg width="24" height="24" viewBox="0 0 21 21" fill="none" xmlns="http://www.w3.org/2000/svg">
<path d="M8.87203 2.09832C9.15767 1.79465 9.54675 1.60905 9.96251 1.57816C10.3783 1.54726 10.7905 1.67331 11.1179 1.93143L11.2276 2.02555L12.8596 3.55782L15.0968 3.4879C15.5169 3.47485 15.9265 3.62103 16.2434 3.89715C16.5603 4.17328 16.7612 4.55895 16.8058 4.97692L16.8147 5.1017L16.8846 7.33894L18.5166 8.87205C18.8205 9.15773 19.0063 9.54698 19.0372 9.96293C19.0681 10.3789 18.9419 10.7913 18.6836 11.1188L18.5894 11.2276L17.0563 12.8596L17.1262 15.0968C17.1395 15.5171 16.9934 15.9269 16.7173 16.244C16.4411 16.5611 16.0553 16.7621 15.6372 16.8067L15.5133 16.8147L13.2769 16.8846L11.7437 18.5166C11.4581 18.8205 11.0688 19.0063 10.6529 19.0372C10.2369 19.0681 9.82449 18.9419 9.49703 18.6836L9.38823 18.5902L7.75622 17.0571L5.51814 17.1271C5.09787 17.1403 4.68812 16.9943 4.37102 16.7181C4.05392 16.442 3.85292 16.0562 3.8083 15.6381L3.80023 15.5133L3.73032 13.276L2.0983 11.7429C1.79439 11.4573 1.60865 11.068 1.57774 10.6521C1.54684 10.2361 1.67302 9.82368 1.93138 9.49622L2.02469 9.38742L3.5578 7.7554L3.48788 5.51816C3.47483 5.09803 3.62101 4.68848 3.89713 4.37156C4.17326 4.05464 4.55893 3.85376 4.9769 3.80915L5.10168 3.80025L7.33892 3.73034L8.87203 2.09832ZM10.0866 3.24094L8.55354 4.87296C8.28549 5.15785 7.92579 5.33938 7.53739 5.38578L7.39098 5.39619L5.15374 5.46611L5.22365 7.70335C5.23598 8.09473 5.11011 8.47796 4.86812 8.78581L4.77239 8.89719L3.23928 10.5292L4.87127 12.0615C5.15646 12.3294 5.3383 12.6891 5.38493 13.0776L5.39617 13.224L5.46608 15.4612L7.70333 15.3913C8.09471 15.379 8.47794 15.5049 8.78579 15.7468L8.89717 15.8426L10.5284 17.3757L12.0615 15.7437C12.3294 15.4585 12.6891 15.2767 13.0776 15.23L13.224 15.2188L15.4612 15.1489L15.3913 12.9116C15.379 12.5203 15.5048 12.137 15.7468 11.8292L15.8426 11.7178L17.3757 10.0866L15.7437 8.55351C15.4585 8.2856 15.2766 7.92589 15.23 7.53739L15.2188 7.391L15.1489 5.15376L12.9116 5.22367C12.5202 5.236 12.137 5.11013 11.8291 4.86814L11.7178 4.77241L10.0858 3.2393L10.0866 3.24094ZM12.7944 7.71522C12.9396 7.56115 13.138 7.46813 13.3493 7.45507C13.5607 7.442 13.769 7.50985 13.9321 7.64485C14.0952 7.77985 14.2008 7.97187 14.2275 8.18191C14.2541 8.39195 14.1998 8.60426 14.0756 8.77571L14.0081 8.8562L10.0705 13.0479C9.91672 13.2118 9.70817 13.3135 9.48439 13.3337C9.26062 13.3539 9.03722 13.2912 8.85662 13.1575L8.77444 13.0892L6.70951 11.1495C6.55387 11.0046 6.45946 10.8058 6.44562 10.5936C6.43178 10.3815 6.49955 10.1721 6.63505 10.0082C6.77056 9.84441 6.96356 9.73858 7.17454 9.71239C7.38552 9.6862 7.59854 9.74164 7.76999 9.86737L7.85044 9.93406L9.36907 11.3606L12.7935 7.71524L12.7944 7.71522Z" fill="white"/>
</svg>
