<svg width="19" height="18" viewBox="0 0 19 18" fill="none" xmlns="http://www.w3.org/2000/svg">
<path d="M1.16082 17.7211C0.993413 17.7211 0.817638 17.7174 0.633494 17.7099C0.449349 17.7018 0.273575 17.6899 0.106171 17.6743V12.1941L5.12829 11.2573L8.04113 13.974C9.3134 13.2558 10.4812 12.4048 11.5446 11.4212C12.6072 10.4376 13.4901 9.38368 14.1932 8.25954L11.3306 5.56626L12.2597 0.858887H18.1356C18.1691 1.01502 18.1858 1.17896 18.1858 1.3507V1.84252C18.1858 3.85662 17.7044 5.81982 16.7415 7.73212C15.7792 9.64505 14.5069 11.3431 12.9246 12.8264C11.343 14.3096 9.52701 15.4962 7.47664 16.3862C5.4256 17.2761 3.32033 17.7211 1.16082 17.7211Z" fill="black"/>
</svg>
