<svg width="20" height="14" viewBox="0 0 20 14" fill="none" xmlns="http://www.w3.org/2000/svg">
<path d="M11.8182 5.1625V3.675C12.3182 3.47083 12.8297 3.31771 13.3527 3.21563C13.8752 3.11354 14.4242 3.0625 15 3.0625C15.3939 3.0625 15.7803 3.09167 16.1591 3.15C16.5379 3.20833 16.9091 3.28125 17.2727 3.36875V4.76875C16.9091 4.6375 16.5418 4.53921 16.1709 4.47388C15.7994 4.40796 15.4091 4.375 15 4.375C14.4242 4.375 13.8712 4.44442 13.3409 4.58325C12.8106 4.7215 12.303 4.91458 11.8182 5.1625ZM11.8182 9.975V8.4875C12.3182 8.28333 12.8297 8.13021 13.3527 8.02812C13.8752 7.92604 14.4242 7.875 15 7.875C15.3939 7.875 15.7803 7.90417 16.1591 7.9625C16.5379 8.02083 16.9091 8.09375 17.2727 8.18125V9.58125C16.9091 9.45 16.5418 9.35171 16.1709 9.28638C15.7994 9.22046 15.4091 9.1875 15 9.1875C14.4242 9.1875 13.8712 9.25313 13.3409 9.38438C12.8106 9.51562 12.303 9.7125 11.8182 9.975ZM11.8182 7.56875V6.08125C12.3182 5.87708 12.8297 5.72396 13.3527 5.62188C13.8752 5.51979 14.4242 5.46875 15 5.46875C15.3939 5.46875 15.7803 5.49792 16.1591 5.55625C16.5379 5.61458 16.9091 5.6875 17.2727 5.775V7.175C16.9091 7.04375 16.5418 6.94546 16.1709 6.88013C15.7994 6.81421 15.4091 6.78125 15 6.78125C14.4242 6.78125 13.8712 6.85067 13.3409 6.9895C12.8106 7.12775 12.303 7.32083 11.8182 7.56875ZM5 10.5C5.71212 10.5 6.40545 10.5764 7.08 10.7292C7.75394 10.8827 8.42424 11.1125 9.09091 11.4187V2.8C8.4697 2.45 7.81061 2.1875 7.11364 2.0125C6.41667 1.8375 5.71212 1.75 5 1.75C4.45455 1.75 3.91303 1.80104 3.37545 1.90313C2.83727 2.00521 2.31818 2.15833 1.81818 2.3625V11.025C2.34848 10.85 2.87515 10.7188 3.39818 10.6312C3.92061 10.5437 4.45455 10.5 5 10.5ZM10.9091 11.4187C11.5758 11.1125 12.2464 10.8827 12.9209 10.7292C13.5948 10.5764 14.2879 10.5 15 10.5C15.5455 10.5 16.0797 10.5437 16.6027 10.6312C17.1252 10.7188 17.6515 10.85 18.1818 11.025V2.3625C17.6818 2.15833 17.163 2.00521 16.6255 1.90313C16.0873 1.80104 15.5455 1.75 15 1.75C14.2879 1.75 13.5833 1.8375 12.8864 2.0125C12.1894 2.1875 11.5303 2.45 10.9091 2.8V11.4187ZM10 14C9.27273 13.4458 8.48485 13.0156 7.63636 12.7094C6.78788 12.4031 5.90909 12.25 5 12.25C4.36364 12.25 3.73879 12.3302 3.12545 12.4906C2.51152 12.651 1.92424 12.8771 1.36364 13.1687C1.04545 13.3292 0.738788 13.3219 0.443636 13.1469C0.147879 12.9719 0 12.7167 0 12.3812V1.8375C0 1.67708 0.0418182 1.52396 0.125455 1.37812C0.208485 1.23229 0.333333 1.12292 0.5 1.05C1.19697 0.7 1.92424 0.4375 2.68182 0.2625C3.43939 0.0875002 4.21212 0 5 0C5.87879 0 6.73879 0.109375 7.58 0.328125C8.42061 0.546875 9.22727 0.875 10 1.3125C10.7727 0.875 11.5797 0.546875 12.4209 0.328125C13.2615 0.109375 14.1212 0 15 0C15.7879 0 16.5606 0.0875002 17.3182 0.2625C18.0758 0.4375 18.803 0.7 19.5 1.05C19.6667 1.12292 19.7918 1.23229 19.8755 1.37812C19.9585 1.52396 20 1.67708 20 1.8375V12.3812C20 12.7167 19.8524 12.9719 19.5573 13.1469C19.2615 13.3219 18.9545 13.3292 18.6364 13.1687C18.0758 12.8771 17.4885 12.651 16.8745 12.4906C16.2612 12.3302 15.6364 12.25 15 12.25C14.0909 12.25 13.2121 12.4031 12.3636 12.7094C11.5152 13.0156 10.7273 13.4458 10 14Z" fill="black"/>
</svg>
