<svg width="18" height="16" viewBox="0 0 18 16" fill="none" xmlns="http://www.w3.org/2000/svg">
<path d="M7.22222 2.55556L9 1M5.44444 11.1111L12.5556 4.88889M9 15L10.7778 13.4444M13 13.4444C13.5894 13.4444 14.1546 13.2396 14.5713 12.8749C14.9881 12.5103 15.2222 12.0157 15.2222 11.5C15.2222 10.9843 14.9881 10.4897 14.5713 10.1251C14.1546 9.76042 13.5894 9.55556 13 9.55556C12.4106 9.55556 11.8454 9.76042 11.4287 10.1251C11.0119 10.4897 10.7778 10.9843 10.7778 11.5C10.7778 12.0157 11.0119 12.5103 11.4287 12.8749C11.8454 13.2396 12.4106 13.4444 13 13.4444V13.4444ZM5 6.44444C5.58937 6.44444 6.1546 6.23958 6.57135 5.87493C6.9881 5.51028 7.22222 5.0157 7.22222 4.5C7.22222 3.9843 6.9881 3.48972 6.57135 3.12507C6.1546 2.76042 5.58937 2.55556 5 2.55556C4.41063 2.55556 3.8454 2.76042 3.42865 3.12507C3.0119 3.48972 2.77778 3.9843 2.77778 4.5C2.77778 5.0157 3.0119 5.51028 3.42865 5.87493C3.8454 6.23958 4.41063 6.44444 5 6.44444V6.44444ZM3.22222 15C3.81159 15 4.37682 14.7951 4.79357 14.4305C5.21032 14.0658 5.44444 13.5713 5.44444 13.0556C5.44444 12.5399 5.21032 12.0453 4.79357 11.6806C4.37682 11.316 3.81159 11.1111 3.22222 11.1111C2.63285 11.1111 2.06762 11.316 1.65087 11.6806C1.23413 12.0453 1 12.5399 1 13.0556C1 13.5713 1.23413 14.0658 1.65087 14.4305C2.06762 14.7951 2.63285 15 3.22222 15V15ZM14.7778 4.88889C15.3671 4.88889 15.9324 4.68403 16.3491 4.31937C16.7659 3.95472 17 3.46014 17 2.94444C17 2.42875 16.7659 1.93417 16.3491 1.56951C15.9324 1.20486 15.3671 1 14.7778 1C14.1884 1 13.6232 1.20486 13.2064 1.56951C12.7897 1.93417 12.5556 2.42875 12.5556 2.94444C12.5556 3.46014 12.7897 3.95472 13.2064 4.31937C13.6232 4.68403 14.1884 4.88889 14.7778 4.88889Z" stroke="black" stroke-width="2" stroke-linecap="round" stroke-linejoin="round"/>
</svg>
